<?xml version="1.0" encoding="UTF-8"?>
<svg id="Layer_1" data-name="Layer 1" xmlns="http://www.w3.org/2000/svg" viewBox="0 0 1777.83 312.46">
  <defs>
    <style>
      .cls-1 {
        fill: #2fc151;
      }
    </style>
  </defs>
  <polygon class="cls-1" points="227.85 241.98 78.47 241.98 78.47 148.62 205.37 148.62 205.37 120.04 78.47 120.04 78.47 32.39 224.42 32.39 224.42 1.91 44.18 1.91 44.18 272.46 227.85 272.46 227.85 241.98"/>
  <path class="cls-1" d="m287.49,230.36c11.3,13.34,24.7,24.01,40.2,32.01,15.49,8,32.52,12,51.06,12,13.97,0,28.13-2.41,42.49-7.24,14.35-4.82,27.37-11.94,39.06-21.34,11.68-9.4,20.32-20.83,25.91-34.3l-28.58-15.62c-5.08,11.18-11.94,20.26-20.58,27.25-8.64,6.99-17.91,12.13-27.82,15.43-9.91,3.3-19.57,4.95-28.96,4.95-13.47,0-25.91-2.92-37.34-8.76-11.43-5.84-21.34-13.72-29.72-23.63-8.38-9.91-14.93-21.34-19.62-34.3-4.7-12.96-7.05-26.42-7.05-40.39,0-12.7,1.96-25.34,5.91-37.92,3.94-12.58,9.84-23.94,17.72-34.11,7.87-10.16,17.59-18.29,29.15-24.39,11.56-6.1,24.83-9.15,39.82-9.15,9.15,0,18.48,1.4,28.01,4.19,9.53,2.8,18.42,7.56,26.67,14.29,8.25,6.73,15.05,15.81,20.39,27.25l27.06-17.53c-8.38-17.27-21.21-31.44-38.49-42.49C425.5,5.53,404.79,0,380.66,0c-20.33,0-38.49,3.88-54.49,11.62-16,7.75-29.53,18.17-40.58,31.25-11.05,13.09-19.43,27.57-25.15,43.44-5.72,15.88-8.57,32.07-8.57,48.59s3.11,33.85,9.34,50.49c6.22,16.64,14.99,31.63,26.29,44.97Z"/>
  <path class="cls-1" d="m543.95,231.88c11.3,13.09,24.7,23.44,40.2,31.06,15.49,7.62,32.77,11.43,51.82,11.43s35.18-3.68,50.68-11.05c15.49-7.37,29.02-17.46,40.58-30.29,11.56-12.83,20.51-27.44,26.87-43.82,6.35-16.39,9.53-33.59,9.53-51.63,0-17.02-3.05-33.66-9.15-49.92-6.1-16.25-14.74-30.99-25.91-44.2-11.18-13.21-24.52-23.75-40.01-31.63-15.5-7.87-32.77-11.81-51.83-11.81s-35.19,3.75-50.68,11.24c-15.5,7.5-29.03,17.66-40.58,30.49-11.56,12.83-20.58,27.44-27.06,43.82-6.48,16.39-9.72,33.6-9.72,51.63s3.05,34.11,9.15,50.49,14.8,31.12,26.1,44.2Zm5.91-133.37c4.32-12.58,10.48-23.94,18.48-34.11,8-10.16,17.72-18.23,29.15-24.2,11.43-5.97,24.39-8.96,38.87-8.96,13.72,0,26.23,2.86,37.54,8.57,11.3,5.72,21.08,13.59,29.34,23.63,8.25,10.04,14.61,21.41,19.05,34.11,4.44,12.71,6.67,25.91,6.67,39.63,0,12.96-2.1,25.79-6.29,38.49-4.19,12.71-10.29,24.14-18.29,34.3-8,10.16-17.72,18.29-29.15,24.39-11.43,6.1-24.39,9.15-38.87,9.15s-26.67-2.92-38.11-8.76c-11.43-5.84-21.21-13.72-29.34-23.63-8.13-9.91-14.42-21.27-18.86-34.11-4.45-12.83-6.67-26.1-6.67-39.82s2.16-26.1,6.48-38.68Z"/>
  <polygon class="cls-1" points="870.33 272.46 904.63 272.46 904.63 32.39 997.99 32.39 997.99 1.91 776.97 1.91 776.97 32.39 870.33 32.39 870.33 272.46"/>
  <polygon class="cls-1" points="1220.53 241.98 1071.15 241.98 1071.15 148.62 1198.05 148.62 1198.05 120.04 1071.15 120.04 1071.15 32.39 1217.1 32.39 1217.1 1.91 1036.86 1.91 1036.86 272.46 1220.53 272.46 1220.53 241.98"/>
  <path class="cls-1" d="m1280.17,230.36c11.3,13.34,24.7,24.01,40.2,32.01,15.49,8,32.52,12,51.06,12,13.97,0,28.13-2.41,42.49-7.24,14.35-4.82,27.37-11.94,39.06-21.34,11.68-9.4,20.32-20.83,25.91-34.3l-28.58-15.62c-5.09,11.18-11.95,20.26-20.58,27.25-8.64,6.99-17.91,12.13-27.82,15.43-9.91,3.3-19.56,4.95-28.96,4.95-13.47,0-25.91-2.92-37.34-8.76-11.43-5.84-21.34-13.72-29.72-23.63-8.38-9.91-14.93-21.34-19.62-34.3-4.71-12.96-7.05-26.42-7.05-40.39,0-12.7,1.96-25.34,5.91-37.92,3.94-12.58,9.84-23.94,17.72-34.11,7.87-10.16,17.59-18.29,29.15-24.39,11.56-6.1,24.83-9.15,39.82-9.15,9.14,0,18.48,1.4,28.01,4.19,9.53,2.8,18.42,7.56,26.68,14.29,8.25,6.73,15.05,15.81,20.39,27.25l27.05-17.53c-8.38-17.27-21.21-31.44-38.49-42.49-17.28-11.05-37.98-16.58-62.12-16.58-20.33,0-38.49,3.88-54.49,11.62-16,7.75-29.53,18.17-40.58,31.25-11.05,13.09-19.43,27.57-25.15,43.44-5.71,15.88-8.57,32.07-8.57,48.59s3.11,33.85,9.34,50.49c6.22,16.64,14.99,31.63,26.29,44.97Z"/>
  <polygon class="cls-1" points="1739.54 294.46 1739.54 272.46 1739.54 272.46 1739.54 1.91 1705.24 1.91 1705.24 118.89 1556.25 118.89 1556.25 1.91 1521.95 1.91 1521.95 272.46 1521.95 294.46 0 294.46 0 312.46 1556.25 312.46 1556.25 294.53 1556.25 294.46 1556.25 272.46 1556.25 149.38 1705.24 149.38 1705.24 272.46 1705.24 294.46 1705.24 294.53 1705.24 312.46 1777.83 312.46 1777.83 294.46 1739.54 294.46"/>
</svg>